<?xml version="1.0" standalone="no"?>
<!DOCTYPE svg PUBLIC "-//W3C//DTD SVG 20010904//EN"
 "http://www.w3.org/TR/2001/REC-SVG-20010904/DTD/svg10.dtd">
<svg version="1.0" xmlns="http://www.w3.org/2000/svg"
 width="200.000000pt" height="200.000000pt" viewBox="0 0 200.000000 200.000000"
 preserveAspectRatio="xMidYMid meet">
<metadata>
Created by potrace 1.11, written by Peter Selinger 2001-2013
</metadata>
<g transform="translate(0.000000,200.000000) scale(0.100000,-0.100000)"
fill="#000000" stroke="none">
<path d="M796 1441 c-33 -4 -61 -12 -64 -19 -4 -14 -52 -16 -52 -2 0 6 -38 10
-95 10 -86 0 -98 -2 -120 -22 -40 -37 -54 -48 -64 -48 -15 0 -18 -22 -7 -47 7
-15 20 -23 36 -23 21 0 29 7 39 35 9 27 18 35 37 35 13 0 24 5 24 10 0 6 27
10 60 10 53 0 60 -2 60 -20 0 -13 -9 -22 -25 -26 -22 -5 -25 -12 -25 -49 l0
-44 -53 -6 c-30 -4 -58 -10 -63 -13 -16 -12 -30 -47 -26 -64 4 -22 32 -24 32
-3 0 8 6 15 13 15 6 0 22 3 35 6 17 5 22 2 22 -14 0 -12 -9 -23 -20 -27 -15
-5 -20 -15 -20 -45 0 -28 -5 -39 -16 -42 -11 -2 -25 -30 -41 -83 -13 -44 -28
-81 -33 -83 -6 -2 -10 -10 -10 -18 0 -8 -4 -14 -9 -14 -9 0 -12 -10 -33 -118
l-12 -64 -31 7 c-16 3 -47 9 -68 12 -29 4 -39 11 -43 29 -5 21 -12 24 -49 24
-56 0 -75 -8 -75 -31 0 -12 -7 -19 -20 -19 -24 0 -35 -36 -26 -85 5 -25 12
-35 26 -35 10 0 22 -9 25 -20 5 -16 15 -20 46 -20 21 0 39 5 39 10 0 6 7 10
15 10 24 0 55 32 55 57 0 20 -5 23 -34 23 -30 0 -35 -3 -38 -27 -4 -33 -29
-41 -52 -18 -12 13 -15 26 -10 53 4 21 8 38 9 40 2 2 28 1 59 -3 37 -5 56 -12
56 -21 0 -7 12 -17 28 -20 15 -4 36 -16 46 -27 17 -18 18 -20 3 -29 -10 -5
-17 -18 -17 -28 0 -10 -4 -22 -10 -25 -5 -3 -10 -13 -10 -21 0 -20 83 -19 104
1 18 18 33 19 51 3 35 -32 45 -38 60 -38 9 0 23 -7 31 -15 9 -8 26 -15 40 -15
13 0 24 -4 24 -10 0 -5 20 -10 45 -10 25 0 45 4 45 9 0 5 18 11 40 15 22 3 40
11 40 16 0 6 7 10 16 10 17 0 44 23 44 39 0 5 10 11 23 13 17 2 23 11 28 43 3
22 10 50 17 62 7 12 12 42 12 66 0 37 4 46 21 50 17 5 20 11 15 29 -3 13 -6
35 -6 51 0 17 -5 27 -15 27 -9 0 -16 14 -20 38 -12 71 -16 83 -35 102 -24 24
-25 30 -6 30 17 0 26 31 26 95 0 53 -12 75 -41 75 -11 0 -19 9 -21 23 -3 20
-9 22 -67 25 l-63 3 6 31 c3 17 6 39 6 49 0 17 9 19 100 19 60 0 100 4 100 10
0 6 12 10 28 10 30 0 55 30 46 55 -14 35 -53 40 -188 26z m144 -21 c0 -5 -9
-10 -20 -10 -11 0 -20 -4 -20 -10 0 -6 -27 -10 -60 -10 -33 0 -60 4 -60 10 0
6 9 10 20 10 11 0 20 5 20 10 0 6 27 10 60 10 33 0 60 -4 60 -10z m-164 -239
c4 -25 13 -41 23 -44 12 -3 17 -15 16 -48 l0 -44 -77 -3 c-43 -2 -78 -7 -78
-12 0 -6 -6 -10 -14 -10 -15 0 -26 -21 -26 -49 0 -15 11 -20 55 -25 58 -7 105
0 105 15 0 17 29 9 33 -8 13 -47 11 -253 -3 -267 -6 -6 -10 -18 -10 -27 0 -9
-6 -19 -14 -22 -9 -3 -12 -15 -9 -31 4 -18 1 -26 -9 -26 -9 0 -20 -17 -27 -39
-10 -35 -15 -40 -51 -46 -22 -4 -40 -11 -40 -16 0 -15 -27 -10 -34 6 -3 8 -12
15 -21 15 -8 0 -15 4 -15 10 0 5 -22 12 -48 16 -42 5 -51 11 -67 40 -17 31
-17 39 -4 92 7 31 13 63 12 71 -2 24 16 61 30 61 11 0 25 36 43 113 4 16 17
33 30 39 17 8 24 19 24 39 0 33 28 108 47 127 7 7 13 18 13 23 0 5 7 9 15 9
11 0 15 11 15 40 0 40 0 40 40 40 39 0 40 -1 46 -39z"/>
<path d="M1168 1329 c-32 -8 -48 -17 -51 -30 -3 -11 -14 -19 -26 -19 -18 0
-21 -6 -21 -43 0 -37 4 -46 25 -55 14 -6 25 -18 25 -26 0 -20 156 -41 224 -30
l51 9 3 42 c2 34 -1 45 -17 55 -12 7 -21 21 -21 30 0 15 -9 18 -50 18 -49 0
-50 -1 -50 -30 0 -16 5 -30 10 -30 6 0 10 -7 10 -15 0 -7 8 -19 18 -25 14 -9
12 -10 -13 -6 -16 3 -51 8 -77 12 -30 4 -48 11 -48 19 0 7 -6 16 -12 18 -9 4
-10 8 -2 14 6 4 13 15 16 24 4 9 23 19 42 23 22 4 36 13 36 21 0 11 12 15 45
15 31 0 45 -4 45 -13 0 -8 25 -19 65 -27 39 -8 65 -19 65 -26 0 -8 15 -18 33
-23 17 -5 27 -10 21 -10 -7 -1 -15 -18 -18 -38 -11 -61 -39 -133 -52 -133 -11
0 -18 -24 -30 -115 -4 -22 -10 -44 -15 -49 -5 -6 -9 -27 -9 -47 0 -21 -7 -44
-15 -53 -8 -8 -15 -17 -15 -21 0 -4 -6 -13 -14 -20 -7 -8 -16 -32 -20 -55 -5
-29 -18 -53 -46 -81 -22 -23 -40 -45 -40 -50 0 -5 -6 -9 -14 -9 -8 0 -17 -6
-20 -12 -5 -10 -7 -10 -12 0 -3 6 -12 12 -20 12 -8 0 -14 4 -14 9 0 5 -9 11
-20 14 -12 3 -20 14 -20 25 0 11 -7 27 -15 36 -17 17 -20 46 -5 46 6 0 10 5
10 11 0 6 7 17 15 25 8 9 15 11 15 5 0 -6 13 -11 30 -11 23 0 31 5 36 25 3 14
4 32 0 40 -9 25 -116 16 -116 -10 0 -6 -11 -17 -24 -23 -18 -8 -25 -21 -31
-57 -4 -30 -3 -51 4 -58 6 -6 11 -18 11 -28 0 -14 22 -40 82 -96 14 -12 31
-15 80 -10 34 3 64 10 66 16 2 6 13 11 25 11 12 0 31 11 42 24 11 13 29 25 39
27 14 3 24 20 35 56 8 29 20 53 26 53 13 0 45 79 52 130 3 22 10 40 14 40 5 0
9 9 9 20 0 11 3 20 8 20 11 0 32 75 32 115 0 23 5 35 14 35 14 0 26 29 26 66
0 12 7 24 15 28 8 3 15 17 15 31 0 24 2 25 70 25 56 0 70 3 70 15 0 10 10 15
28 15 38 0 52 17 52 62 0 32 -4 40 -26 48 -58 22 -234 4 -234 -24 0 -6 -8 -16
-18 -22 -23 -15 -142 3 -142 21 0 7 -11 15 -24 19 -47 12 -192 15 -238 5z
m579 -45 c15 -4 20 -11 16 -22 -10 -25 -24 -32 -70 -32 -33 0 -43 4 -43 16 0
34 46 52 97 38z"/>
</g>
</svg>
